<mxfile host="app.diagrams.net" modified="2022-05-04T01:37:14.831Z" agent="5.0 (Windows NT 10.0; Win64; x64) AppleWebKit/537.36 (KHTML, like Gecko) Chrome/100.0.4896.127 Safari/537.36" etag="zBp3Aso8sAdxLbeKoL8D" version="17.5.0" type="github">
  <diagram id="-5KTswER-DCASXisfl5g" name="第 1 页">
    <mxGraphModel dx="650" dy="947" grid="1" gridSize="10" guides="1" tooltips="1" connect="1" arrows="1" fold="1" page="1" pageScale="1" pageWidth="827" pageHeight="1169" math="0" shadow="0">
      <root>
        <mxCell id="0" />
        <mxCell id="1" parent="0" />
        <mxCell id="1V-qhqrc9bmcEsXkgc_9-1" value="" style="shape=parallelogram;perimeter=parallelogramPerimeter;whiteSpace=wrap;html=1;fixedSize=1;size=70;" vertex="1" parent="1">
          <mxGeometry x="135" y="525" width="460" height="110" as="geometry" />
        </mxCell>
        <mxCell id="1V-qhqrc9bmcEsXkgc_9-2" value="" style="ellipse;shape=cloud;whiteSpace=wrap;html=1;fillColor=#f5f5f5;fontColor=#333333;strokeColor=#666666;" vertex="1" parent="1">
          <mxGeometry x="272" y="540" width="186" height="80" as="geometry" />
        </mxCell>
        <mxCell id="1V-qhqrc9bmcEsXkgc_9-3" value="" style="shape=flexArrow;endArrow=classic;html=1;rounded=0;fillColor=#dae8fc;strokeColor=#6c8ebf;" edge="1" parent="1">
          <mxGeometry width="50" height="50" relative="1" as="geometry">
            <mxPoint x="160" y="480" as="sourcePoint" />
            <mxPoint x="330" y="570" as="targetPoint" />
          </mxGeometry>
        </mxCell>
        <mxCell id="1V-qhqrc9bmcEsXkgc_9-5" value="" style="shape=flexArrow;endArrow=classic;html=1;rounded=0;fillColor=#f8cecc;strokeColor=#b85450;" edge="1" parent="1">
          <mxGeometry width="50" height="50" relative="1" as="geometry">
            <mxPoint x="410" y="570" as="sourcePoint" />
            <mxPoint x="550" y="490" as="targetPoint" />
          </mxGeometry>
        </mxCell>
        <mxCell id="1V-qhqrc9bmcEsXkgc_9-6" value="Excitation" style="text;html=1;strokeColor=none;fillColor=none;align=center;verticalAlign=middle;whiteSpace=wrap;rounded=0;fontSize=16;rotation=30;" vertex="1" parent="1">
          <mxGeometry x="210" y="470" width="90" height="40" as="geometry" />
        </mxCell>
        <mxCell id="1V-qhqrc9bmcEsXkgc_9-7" value="Emission" style="text;html=1;strokeColor=none;fillColor=none;align=center;verticalAlign=middle;whiteSpace=wrap;rounded=0;fontSize=16;rotation=-30;" vertex="1" parent="1">
          <mxGeometry x="414" y="470" width="90" height="40" as="geometry" />
        </mxCell>
        <mxCell id="1V-qhqrc9bmcEsXkgc_9-9" value="Fluorophore" style="text;html=1;strokeColor=none;fillColor=none;align=center;verticalAlign=middle;whiteSpace=wrap;rounded=0;fontSize=16;fontColor=#000000;" vertex="1" parent="1">
          <mxGeometry x="339" y="570" width="60" height="30" as="geometry" />
        </mxCell>
      </root>
    </mxGraphModel>
  </diagram>
</mxfile>
